<svg xmlns="http://www.w3.org/2000/svg" width="330" height="330" viewBox="0 0 330 330"><path fill-rule="evenodd" clip-rule="evenodd" fill="#E6E6E6" d="M3 0h324a3 3 0 0 1 3 3v324a3 3 0 0 1-3 3H3a3 3 0 0 1-3-3V3a3 3 0 0 1 3-3z"/><path fill-rule="evenodd" clip-rule="evenodd" fill="#D8D8DA" d="M269.976 330h-9.013c0-85.896-55.071-106.799-69.261-111.989-7.94 3.868-16.804 6.098-26.202 6.098-9.398 0-18.262-2.23-26.202-6.098-10.932 2.377-70.262 26.014-70.262 111.989h-9.013c0-84.586 57.946-112.313 68.935-116.438-13.753-10.826-22.615-27.581-22.615-46.437 0-32.654 26.485-59.125 59.156-59.125s59.156 26.471 59.156 59.125c0 18.855-8.861 35.61-22.615 46.437 8.003 2.116 67.936 29.825 67.936 116.438zm-53.982-163c0-27.614-22.607-50-50.494-50s-50.494 22.386-50.494 50 22.607 50 50.494 50 50.494-22.386 50.494-50z"/></svg>