<svg xmlns="http://www.w3.org/2000/svg" width="120" height="96" viewBox="0 0 120 96"><path fill="#E6E6E6" d="M3 95.5A2.503 2.503 0 0 1 .5 93V3C.5 1.622 1.622.5 3 .5h114c1.379 0 2.5 1.122 2.5 2.5v90c0 1.379-1.121 2.5-2.5 2.5H3z"/><path fill="#BFBFBF" d="M117 1c1.103 0 2 .897 2 2v90c0 1.103-.897 2-2 2H3c-1.103 0-2-.897-2-2V3c0-1.103.897-2 2-2h114m0-1H3a3 3 0 0 0-3 3v90a3 3 0 0 0 3 3h114a3 3 0 0 0 3-3V3a3 3 0 0 0-3-3z"/><path fill="#BFBFBF" d="M66.137 46.13h-4.771v-4.767a1.364 1.364 0 1 0-2.727.001v4.77h-4.774c-.755 0-1.368.612-1.368 1.367a1.373 1.373 0 0 0 1.364 1.374h4.777v4.763A1.36 1.36 0 0 0 60 55.004c.754 0 1.365-.612 1.365-1.366v-4.763h4.771a1.37 1.37 0 0 0 1.366-1.372 1.368 1.368 0 0 0-1.365-1.373z"/></svg>