<svg xmlns="http://www.w3.org/2000/svg" width="30" height="30" viewBox="0 0 30 30"><path fill="#FFF" d="M23.989 7.011c-4.681-4.681-12.298-4.681-16.979 0s-4.681 12.297 0 16.979l2.603 1.978a11.941 11.941 0 0 0 5.865 1.533c3.116 0 6.205-1.205 8.51-3.51 4.682-4.683 4.682-12.299.001-16.98zm-.998 15.979c-3.348 3.348-8.564 4.066-12.684 1.746L8.009 22.99c-4.13-4.13-4.13-10.85 0-14.981 4.131-4.131 10.851-4.13 14.981 0 4.131 4.131 4.131 10.851.001 14.981zM19.75 11.481a.706.706 0 0 0-.999 0L15.5 14.732l-3.251-3.251a.706.706 0 1 0-.999.999l3.251 3.251-3.251 3.25a.706.706 0 0 0 .998.999l3.251-3.251 3.251 3.251a.703.703 0 0 0 .998 0 .706.706 0 0 0 0-.999l-3.251-3.251 3.251-3.251a.705.705 0 0 0 .002-.998z"/></svg>