<svg xmlns="http://www.w3.org/2000/svg" width="90" height="72" viewBox="0 0 90 72"><path fill="#E6E6E6" d="M0 0h90v72H0z"/><path fill-rule="evenodd" clip-rule="evenodd" fill="#BFBFBF" d="M45 18.5c-9.665 0-17.5 7.835-17.5 17.5S35.335 53.5 45 53.5 62.5 45.665 62.5 36 54.665 18.5 45 18.5zM29.75 36.018c0-8.432 6.835-15.267 15.267-15.267a15.2 15.2 0 0 1 9.765 3.535L33.285 45.783a15.205 15.205 0 0 1-3.535-9.765zm15.268 15.267c-3.909 0-7.464-1.482-10.164-3.898l21.534-21.534c2.416 2.701 3.898 6.255 3.898 10.164-.001 8.433-6.836 15.268-15.268 15.268z"/></svg>