<svg xmlns="http://www.w3.org/2000/svg" width="30" height="30" viewBox="0 0 30 30"><path fill="#FFF" d="M22.989 7.011c-4.682-4.681-12.298-4.681-16.979 0s-4.681 12.297 0 16.979l2.603 1.978a11.941 11.941 0 0 0 5.865 1.533c3.116 0 6.205-1.205 8.51-3.51 4.682-4.683 4.682-12.299.001-16.98zM21.99 22.99c-3.347 3.348-8.563 4.066-12.683 1.746L7.009 22.99c-4.13-4.13-4.13-10.85 0-14.981 4.13-4.13 10.851-4.131 14.981 0s4.13 10.851 0 14.981zm-2.186-7.966H9.196a.706.706 0 1 0 0 1.412h10.608a.706.706 0 1 0 0-1.412z"/></svg>