<svg xmlns="http://www.w3.org/2000/svg" width="120" height="96" viewBox="0 0 120 96"><path fill="#E6E6E6" d="M0 93.016a3 3 0 0 0 3 3h114a3 3 0 0 0 3-3v-90a3 3 0 0 0-3-3H3a3 3 0 0 0-3 3v90z"/><path fill="#D8D8DA" d="M97.503 96h-4.144c-.979-13.164-9.324-24.198-20.811-28.832-3.651 1.799-7.726 2.836-12.048 2.836-4.321 0-8.397-1.037-12.048-2.836C36.965 71.802 28.619 82.836 27.641 96h-4.144a37.5 37.5 0 0 1 20.201-30.902A27.535 27.535 0 0 1 33.3 43.5C33.3 28.312 45.478 16 60.501 16c15.022 0 27.2 12.312 27.2 27.5 0 8.77-4.075 16.563-10.398 21.598A37.501 37.501 0 0 1 97.503 96zM83.718 43.442c0-12.844-10.395-23.256-23.218-23.256S37.282 30.598 37.282 43.442 47.677 66.698 60.5 66.698s23.218-10.412 23.218-23.256z"/></svg>