<svg xmlns="http://www.w3.org/2000/svg" width="30" height="30" viewBox="0 0 30 30"><path fill="#FFF" d="M18.1 5.396a11.966 11.966 0 0 0-3.65-.395l3.515-3.515a.706.706 0 0 0-.998-.999l-4.892 4.892a.708.708 0 0 0 0 .999l4.892 4.891a.706.706 0 1 0 .999-.999l-3.825-3.825a10.53 10.53 0 0 1 3.594.315c5.642 1.511 9.003 7.332 7.49 12.974-1.512 5.642-7.332 9.002-12.974 7.49C7.678 26 4.449 21.842 4.398 17.114a.707.707 0 0 0-1.413.015 11.937 11.937 0 0 0 1.605 5.846 12.035 12.035 0 0 0 7.296 5.615c6.394 1.713 12.99-2.095 14.704-8.489 1.713-6.395-2.096-12.991-8.49-14.705z"/></svg>