<svg xmlns="http://www.w3.org/2000/svg" width="30" height="30" viewBox="0 0 30 30"><path fill="#FFF" d="M26.469 9.335a.71.71 0 0 0-.961-.266.694.694 0 0 0-.269.95c2.317 4.069 1.6 9.221-1.744 12.527-4.125 4.079-10.836 4.079-14.961 0s-4.125-10.717 0-14.796a10.509 10.509 0 0 1 2.951-2.044l-1.398 5.16a.706.706 0 0 0 1.363.361l1.788-6.6a.697.697 0 0 0-.499-.854L6.066 2.005a.71.71 0 0 0-.864.493.696.696 0 0 0 .499.854l4.796 1.271a11.952 11.952 0 0 0-2.96 2.14c-4.675 4.623-4.675 12.146 0 16.769s12.281 4.623 16.957 0A11.818 11.818 0 0 0 28 15.127c0-1.986-.501-3.983-1.531-5.792z"/></svg>