<svg xmlns="http://www.w3.org/2000/svg" width="340" height="272" viewBox="0 0 340 272"><path fill="#E6E6E6" d="M0 0h340v272H0z"/><path fill-rule="evenodd" clip-rule="evenodd" fill="#D8D8DA" d="M236.062 196.401H103.937c-5.212 0-9.437-3.969-9.437-8.867V90c0-4.895 4.225-8.866 9.437-8.866h23.594l4.719-8.867s4.225-8.867 9.438-8.867h56.624c5.213 0 9.438 8.867 9.438 8.867l4.719 8.867h23.594c5.212 0 9.438 3.971 9.438 8.866v97.534c-.001 4.898-4.227 8.867-9.439 8.867zm.891-102.185c0-2.462-3.057-5.346-5.697-5.346l-22.997-.231-7.651-11.15s-3.426-5.577-7.652-5.577h-45.91c-4.226 0-7.652 5.577-7.652 5.577l-7.855 11.381h-22.792c-2.641 0-5.699 2.884-5.699 5.346v89.211c0 2.464 2.141 4.459 4.782 4.459h124.34c2.641 0 4.782-1.995 4.782-4.459V94.216zM170 170.95c-21.242 0-38.463-15.84-38.463-35.379 0-19.538 17.22-35.378 38.463-35.378 21.242 0 38.463 15.84 38.463 35.378-.001 19.539-17.221 35.379-38.463 35.379zm0-62.266c-16.522 0-29.915 12.038-29.915 26.888 0 14.849 13.393 26.888 29.915 26.888s29.914-12.038 29.914-26.888c0-14.85-13.393-26.888-29.914-26.888z"/></svg>