<svg xmlns="http://www.w3.org/2000/svg" width="90" height="72" viewBox="0 0 90 72"><path fill-rule="evenodd" clip-rule="evenodd" fill="#E6E6E6" d="M0-.001h90v72H0z"/><path fill-rule="evenodd" clip-rule="evenodd" fill="#D8D8DA" d="M64.312 54.999H26.687c-1.484 0-2.687-1.134-2.687-2.533V24.599c0-1.399 1.203-2.533 2.687-2.533h6.719l1.344-2.533S35.953 17 37.437 17h16.125c1.484 0 2.688 2.533 2.688 2.533l1.344 2.533h6.719c1.484 0 2.688 1.135 2.688 2.533v27.867c-.001 1.399-1.205 2.533-2.689 2.533zm.254-29.196c0-.704-.871-1.527-1.622-1.527l-6.549-.066-2.179-3.186s-.976-1.593-2.179-1.593H38.963c-1.203 0-2.179 1.593-2.179 1.593l-2.237 3.252h-6.491c-.752 0-1.623.824-1.623 1.527v25.489c0 .704.61 1.274 1.362 1.274h35.409c.752 0 1.362-.57 1.362-1.274V25.803zM45.5 47.727c-6.049 0-10.953-4.526-10.953-10.108 0-5.582 4.904-10.108 10.953-10.108 6.049 0 10.953 4.526 10.953 10.108-.001 5.582-4.904 10.108-10.953 10.108zm0-17.79c-4.705 0-8.519 3.439-8.519 7.682s3.814 7.682 8.519 7.682 8.519-3.44 8.519-7.682c-.001-4.243-3.815-7.682-8.519-7.682z"/></svg>