<svg xmlns="http://www.w3.org/2000/svg" width="30" height="30" viewBox="0 0 30 30"><path fill="#FFF" d="M25.354 6.973h-7.688V5.439a2.943 2.943 0 0 0-2.939-2.94h-.154a2.943 2.943 0 0 0-2.94 2.94v1.533H3.646a.706.706 0 1 0 0 1.412h2.138v17.409c0 .39.316.706.706.706h16.319c.39 0 .706-.316.706-.706V8.385h1.839a.706.706 0 1 0 0-1.412zM13.045 5.439a1.53 1.53 0 0 1 1.528-1.528h.154a1.53 1.53 0 0 1 1.528 1.528v1.533h-3.21V5.439zm9.058 19.649H7.196V8.385h14.907v16.703zm-11.496-3.386a.565.565 0 0 0 .565-.565v-8.802a.565.565 0 0 0-1.13 0v8.802a.566.566 0 0 0 .565.565zm8.16 0a.565.565 0 0 0 .565-.565v-8.802a.565.565 0 0 0-1.13 0v8.802c0 .312.253.565.565.565zm-4.117 0a.565.565 0 0 0 .565-.565v-8.802a.565.565 0 0 0-1.13 0v8.802c0 .312.253.565.565.565z"/></svg>